PathFileType	4	(X/Y/Z)	./resultDataOpenSim/trcMotMarkerGrf/sub06/qtm-13-05.trc
DataRate	CameraRate	NumFrames	NumMarkers	Units	OrigDataRate	OrigDataStartFrame	OrigNumFrames
250.000000	250.000000	9	24	m	250.000000	247	493
Frame#	Time	L.Toe.Tip			R.Toe.Tip			L.Ankle.Lat			R.Ankle.Lat			L.Ankle.Med			R.Ankle.Med			L.Heel			R.Heel			L.Knee.Lat			R.Knee.Lat			L.Knee.Med			R.Knee.Med			L.Thigh.Upper			R.Thigh.Upper			L.ASIS			R.ASIS			V.Sacral			L.Acromium			R.Acromium			C7			L.Elbow			R.Elbow			L.Wrist.Lat			R.Wrist.Lat
		X1	Y1	Z1	X2	Y2	Z2	X3	Y3	Z3	X4	Y4	Z4	X5	Y5	Z5	X6	Y6	Z6	X7	Y7	Z7	X8	Y8	Z8	X9	Y9	Z9	X10	Y10	Z10	X11	Y11	Z11	X12	Y12	Z12	X13	Y13	Z13	X14	Y14	Z14	X15	Y15	Z15	X16	Y16	Z16	X17	Y17	Z17	X18	Y18	Z18	X19	Y19	Z19	X20	Y20	Z20	X21	Y21	Z21	X22	Y22	Z22	X23	Y23	Z23	X24	Y24	Z24

247	0.984	0.12054185	-0.016130177	-0.036164898	0.8345245	0.11657168	0.14156824	0.020210689	0.060198664	-0.063951865	0.69755519	0.094795181	0.15371086	0.027857381	0.075792148	0.021966459	0.71542425	0.12818677	0.070761542	-0.055993947	0.060770335	-0.016927384	0.66142611	0.058796313	0.087664132	0.18770894	0.39538974	-0.080041114	0.58862068	0.46994372	0.16658934	0.17826995	0.40020333	0.043282746	0.57105957	0.44405054	0.042045381	0.29800299	0.76137094	-0.14149606	0.36657271	0.7657017	0.20462828	0.39142263	0.80348064	-0.11132311	0.43753975	0.8183099	0.13062379	0.23545971	0.88819518	0.045835841	0.38940018	1.296994	-0.14744811	0.36818422	1.2757333	0.21462396	0.3023534	1.3245875	0.027395855	0.43782459	0.97941224	-0.2388159	0.20912528	1.004694	0.2510189	0.68258915	0.93047468	-0.19960562	0.2219022	0.77926654	0.32493592
248	0.988	0.12054084	-0.016153999	-0.036156045	0.84442298	0.11680718	0.14082397	0.021374584	0.061367386	-0.063983006	0.7076495	0.093529313	0.15243598	0.029448071	0.076888	0.021877233	0.72548935	0.12722196	0.069523406	-0.054664589	0.062923733	-0.016953804	0.67211323	0.057127737	0.086205925	0.19264533	0.39485956	-0.080117914	0.59605846	0.46750429	0.16597632	0.18381229	0.39945098	0.043315388	0.57810619	0.44117614	0.040904405	0.30417328	0.7602052	-0.14099692	0.37535247	0.76392531	0.20475972	0.3969532	0.80262283	-0.11243897	0.44587345	0.8167711	0.13031679	0.24357905	0.8866168	0.0471314	0.39599327	1.2956507	-0.14704291	0.37557116	1.2743998	0.21519573	0.30919976	1.3232708	0.028309604	0.44703785	0.97849086	-0.23808442	0.21604232	1.0037589	0.25155362	0.6923652	0.93240668	-0.19816094	0.22787297	0.77851703	0.32599263
249	0.992	0.12057129	-0.016173526	-0.036169732	0.85354111	0.11652798	0.14005129	0.022594525	0.062582458	-0.064089927	0.71683797	0.092251674	0.1512049	0.031009289	0.077962074	0.021708508	0.73482041	0.12599467	0.068270944	-0.053222656	0.06516175	-0.016968751	0.68190416	0.055357391	0.084765892	0.19768954	0.3943114	-0.080192823	0.60367225	0.46532036	0.16531587	0.18949732	0.39883341	0.043141735	0.5852378	0.43853555	0.039752742	0.31044622	0.75901186	-0.14049504	0.38419351	0.76220513	0.20481575	0.40360858	0.80163674	-0.11276361	0.45441358	0.81527994	0.1300623	0.25150776	0.88520906	0.04823881	0.40260544	1.2943083	-0.14661216	0.38303153	1.2730383	0.21578835	0.31619644	1.3219249	0.029133678	0.45624701	0.97761231	-0.23721327	0.22309296	1.0027879	0.25214858	0.70202773	0.93421544	-0.19667158	0.2339684	0.77771571	0.32705551
250	0.996	0.12065614	-0.016170996	-0.03619487	0.86191456	0.11575352	0.13920852	0.023917136	0.063840093	-0.064269473	0.72509548	0.090981025	0.1500364	0.032576492	0.079034452	0.021465476	0.74342143	0.12450278	0.06698963	-0.051672798	0.067476729	-0.017000184	0.6908146	0.053450595	0.083351473	0.2028552	0.39373948	-0.080281022	0.61144916	0.46335416	0.16456272	0.19531593	0.39825773	0.042866539	0.59249881	0.43617162	0.038631937	0.31682525	0.75779782	-0.13998742	0.39311251	0.76055773	0.20479881	0.41082796	0.8005384	-0.11262174	0.46300543	0.8138001	0.12976512	0.25934147	0.88388663	0.049270555	0.40924114	1.2929717	-0.14615436	0.39056347	1.2716563	0.21640063	0.32339015	1.3205471	0.029809129	0.46558917	0.97670198	-0.23633934	0.23028628	1.0017797	0.25277882	0.71156316	0.93590774	-0.19515622	0.24015813	0.77685792	0.32812467
251	1	0.120805	-0.016136709	-0.036220058	0.86958146	0.11449859	0.13824933	0.025388923	0.065128114	-0.064508396	0.73255821	0.089582725	0.14887506	0.034192739	0.080117638	0.02115768	0.75130335	0.12274512	0.065647873	-0.050009789	0.069856926	-0.01707488	0.69889184	0.051373651	0.081956561	0.20815519	0.39313472	-0.080397836	0.61932256	0.46154596	0.16369855	0.20124777	0.39757244	0.042675876	0.59991934	0.43411412	0.037587473	0.32330284	0.75657258	-0.13946709	0.4021323	0.75900041	0.20473421	0.41794456	0.79939267	-0.11254815	0.47157006	0.81231034	0.12937203	0.26724809	0.88257796	0.050236367	0.41590606	1.2916454	-0.14566477	0.39816885	1.2702559	0.21704164	0.33074664	1.319141	0.030375242	0.47520936	0.97571147	-0.23565508	0.237531	1.0007496	0.25347905	0.72096448	0.93750966	-0.19365681	0.24648265	0.77594787	0.32920486
252	1.004	0.12100091	-0.016081425	-0.036240947	0.87660474	0.11274958	0.137135	0.027024965	0.06643894	-0.06479853	0.73947009	0.087826445	0.14761338	0.035892444	0.0812289	0.02079934	0.75849243	0.12072155	0.064231072	-0.048222141	0.072298892	-0.017202035	0.70619134	0.049108813	0.080562731	0.21358803	0.39249185	-0.080575277	0.62719224	0.45983707	0.16274716	0.2073179	0.39674894	0.042579179	0.60747761	0.4323922	0.036619376	0.32987438	0.75533753	-0.13893343	0.41127525	0.75754946	0.20466424	0.42482059	0.79828979	-0.11271614	0.48012912	0.81081755	0.12888888	0.27545867	0.88122845	0.051066653	0.42260467	1.2903334	-0.14513712	0.40584513	1.2688396	0.21771969	0.33817795	1.3177184	0.030937684	0.48516735	0.97464609	-0.23529234	0.24475899	0.99970641	0.25428779	0.73023975	0.93904208	-0.19219274	0.25298072	0.77499052	0.33029262
253	1.008	0.1212088	-0.016028916	-0.03625637	0.88305526	0.11049725	0.13584388	0.028808602	0.067782844	-0.065143137	0.74601293	0.085562103	0.14617416	0.037723327	0.082402482	0.020414844	0.76503486	0.11843216	0.062764194	-0.046306503	0.074813317	-0.017365097	0.71276296	0.046655978	0.079153335	0.21914862	0.39180797	-0.080853502	0.63497751	0.45817855	0.16176273	0.21358143	0.39587722	0.042430114	0.61511481	0.43103941	0.035693762	0.33653987	0.7540919	-0.13839959	0.42055027	0.75621659	0.20463637	0.4317897	0.79730632	-0.1129016	0.4887247	0.80933844	0.12834167	0.28412696	0.87981029	0.051704756	0.42934013	1.2890397	-0.14456805	0.4135782	1.2674184	0.21843405	0.34560429	1.3163021	0.031601867	0.49541487	0.97353322	-0.23526175	0.25202052	0.99863276	0.25516929	0.739398	0.94050458	-0.19075022	0.25967613	0.77399	0.33138043
254	1.012	0.12141154	-0.015992913	-0.036265809	0.88898497	0.10776677	0.13436834	0.030712237	0.069182048	-0.065546892	0.75222714	0.082792119	0.14455777	0.039725056	0.083657435	0.020020009	0.77098082	0.11586626	0.061304469	-0.044269161	0.077421932	-0.017527449	0.71865824	0.044015868	0.077727142	0.22486089	0.39107211	-0.081227143	0.64264315	0.45651927	0.16080533	0.22008221	0.39498835	0.042159691	0.62277268	0.43006101	0.034793771	0.34330074	0.75283841	-0.13788142	0.4299124	0.75500462	0.20466054	0.43913245	0.79644555	-0.11287979	0.49736865	0.80788359	0.12774765	0.29309968	0.87835261	0.052209405	0.43611972	1.2877692	-0.14395368	0.42134579	1.2660096	0.21917791	0.35297216	1.3149195	0.032441084	0.50584216	0.97239491	-0.23549013	0.25939402	0.99751048	0.25606237	0.74843785	0.941881	-0.18930899	0.26658881	0.77295115	0.33246711
255	1.016	0.12161714	-0.015971625	-0.036267516	0.89441674	0.10462198	0.13270656	0.032719338	0.070644137	-0.065998641	0.75801363	0.079656366	0.14284842	0.041910244	0.084983986	0.019612204	0.77635431	0.11301107	0.059896166	-0.042106579	0.080147201	-0.017660955	0.72392539	0.041178272	0.076302923	0.23077745	0.39026756	-0.081637017	0.6501978	0.45480199	0.15991188	0.22682617	0.39401553	0.041833336	0.63041964	0.42940312	0.033940997	0.35015705	0.75158409	-0.13738755	0.43923961	0.75389889	0.20467778	0.44674179	0.79562192	-0.11271058	0.50605043	0.80645654	0.12711455	0.30190358	0.87694812	0.052771171	0.44295296	1.286527	-0.14329221	0.42913265	1.2646258	0.21994637	0.36026777	1.3135834	0.033471596	0.51632674	0.97124398	-0.23587991	0.26690365	0.99634271	0.25694793	0.75735472	0.94315621	-0.18786358	0.27372247	0.77187808	0.33355462
